<svg viewBox="0 0 395.52 131.57400824543979" height="131.57400824543979" width="395.52" data-background-color="#000000" preserveAspectRatio="xMidYMid meet" id="tight-bounds" xmlns="http://www.w3.org/2000/svg" xmlns:xlink="http://www.w3.org/1999/xlink"><g><svg viewBox="0 0 656.103701977712 218.259996697712" height="131.57400824543979" width="395.52"><g transform="matrix(1,0,0,1,260.583701977712,64.309998348856)"><svg viewBox="0 0 395.52000000000004 89.64" height="89.64" width="395.52000000000004"><g id="textblocktransform"><svg viewBox="0 0 395.52000000000004 89.64" height="89.64" width="395.52000000000004" id="textblock"><g><svg viewBox="0 0 395.52000000000004 89.64" height="89.64" width="395.52000000000004"><g transform="matrix(1,0,0,1,0,0)"><svg width="395.52000000000004" viewBox="1.5 -36.75 164.7899932861328 37.349998474121094" height="89.64" data-palette-color="#1a4178"><path d="M13.2 0.6L13.2 0.6Q9.55 0.6 6.55-0.38 3.55-1.35 1.5-2.95L1.5-2.95 3.9-6.95Q5.7-5.45 7.95-4.5 10.2-3.55 13.2-3.55L13.2-3.55Q16.8-3.55 18.9-5.05 21-6.55 21-9.1L21-9.1Q21-10.55 20.4-11.68 19.8-12.8 18.07-13.88 16.35-14.95 13-16.2L13-16.2Q9.4-17.6 7.25-19.03 5.1-20.45 4.17-22.28 3.25-24.1 3.25-26.6L3.25-26.6Q3.25-29.1 4.63-31.13 6-33.15 8.68-34.38 11.35-35.6 15.15-35.6L15.15-35.6Q18.25-35.6 20.73-34.98 23.2-34.35 25.55-33.2L25.55-33.2 23.8-29.15Q22.1-30.15 19.83-30.83 17.55-31.5 15.05-31.5L15.05-31.5Q11.75-31.5 9.85-30.2 7.95-28.9 7.95-26.85L7.95-26.85Q7.95-25.55 8.5-24.55 9.05-23.55 10.68-22.6 12.3-21.65 15.55-20.45L15.55-20.45Q19.45-19 21.73-17.4 24-15.8 24.95-13.93 25.9-12.05 25.9-9.65L25.9-9.65Q25.9-6.4 24.28-4.1 22.65-1.8 19.78-0.6 16.9 0.6 13.2 0.6ZM61.3-1.25L56.95 0.5 53.05-9.5 36.85-9.5 32.95 0.4 28.9-1.25 42.6-35 47.8-35 61.3-1.25ZM44.95-30.3L38.35-13.5 51.5-13.5 44.95-30.3ZM70.8 0L66.3 0 66.3-35 72.59-35 88.05-5.9 88.05-35 92.55-35 92.55 0 86.34 0 70.8-28.9 70.8 0ZM126.39-1.5L121.94 0.6 117.59-8.9Q115.94-12.45 113.44-13.95 110.94-15.45 107.04-15.45L107.04-15.45 106.29-15.45 106.29 0 101.54 0 101.54-34.9Q104.19-35.15 106.62-35.27 109.04-35.4 111.79-35.4L111.79-35.4Q118.19-35.4 121.42-32.8 124.64-30.2 124.64-26.1L124.64-26.1Q124.64-22.45 122.47-20.23 120.29-18 116.19-16.9L116.19-16.9Q117.54-16.3 118.59-15.48 119.64-14.65 120.62-13.28 121.59-11.9 122.59-9.7L122.59-9.7 126.39-1.5ZM106.29-31.2L106.29-19.45 111.79-19.45Q115.39-19.45 117.64-21.05 119.89-22.65 119.89-25.65L119.89-25.65Q119.89-28.15 117.79-29.78 115.69-31.4 111.79-31.4L111.79-31.4Q110.09-31.4 108.74-31.35 107.39-31.3 106.29-31.2L106.29-31.2ZM136.39 0L131.89 0 131.89-26 136.39-26 136.39 0ZM134.14-30.45L134.14-30.45Q132.84-30.45 131.92-31.4 130.99-32.35 130.99-33.6L130.99-33.6Q130.99-35.05 131.84-35.9 132.69-36.75 134.14-36.75L134.14-36.75Q135.44-36.75 136.37-35.83 137.29-34.9 137.29-33.6L137.29-33.6Q137.29-32.2 136.44-31.33 135.59-30.45 134.14-30.45ZM153.59 0.6L153.59 0.6Q149.94 0.6 146.94-0.38 143.94-1.35 141.89-2.95L141.89-2.95 144.29-6.95Q146.09-5.45 148.34-4.5 150.59-3.55 153.59-3.55L153.59-3.55Q157.19-3.55 159.29-5.05 161.39-6.55 161.39-9.1L161.39-9.1Q161.39-10.55 160.79-11.68 160.19-12.8 158.46-13.88 156.74-14.95 153.39-16.2L153.39-16.2Q149.79-17.6 147.64-19.03 145.49-20.45 144.56-22.28 143.64-24.1 143.64-26.6L143.64-26.6Q143.64-29.1 145.01-31.13 146.39-33.15 149.06-34.38 151.74-35.6 155.54-35.6L155.54-35.6Q158.64-35.6 161.11-34.98 163.59-34.35 165.94-33.2L165.94-33.2 164.19-29.15Q162.49-30.15 160.21-30.83 157.94-31.5 155.44-31.5L155.44-31.5Q152.14-31.5 150.24-30.2 148.34-28.9 148.34-26.85L148.34-26.85Q148.34-25.55 148.89-24.55 149.44-23.55 151.06-22.6 152.69-21.65 155.94-20.45L155.94-20.45Q159.84-19 162.11-17.4 164.39-15.8 165.34-13.93 166.29-12.05 166.29-9.65L166.29-9.65Q166.29-6.4 164.66-4.1 163.04-1.8 160.16-0.6 157.29 0.6 153.59 0.6Z" opacity="1" transform="matrix(1,0,0,1,0,0)" fill="#1a4178" class="wordmark-text-0" data-fill-palette-color="primary" id="text-0"></path></svg></g></svg></g></svg></g></svg></g><g><svg viewBox="0 0 218.259996697712 218.259996697712" height="218.259996697712" width="218.259996697712"><g><svg></svg></g><g id="icon-0"><svg viewBox="0 0 218.259996697712 218.259996697712" height="218.259996697712" width="218.259996697712"><g><path d="M0 109.13c0-60.271 48.859-109.13 109.13-109.13 60.271 0 109.13 48.859 109.13 109.13 0 60.271-48.859 109.13-109.13 109.13-60.271 0-109.13-48.859-109.13-109.13zM109.13 210.176c55.806 0 101.046-45.24 101.046-101.046 0-55.806-45.24-101.046-101.046-101.046-55.806 0-101.046 45.24-101.046 101.046 0 55.806 45.24 101.046 101.046 101.046z" data-fill-palette-color="accent" fill="#1a6d77" stroke="transparent"></path><ellipse rx="108.03869836536745" ry="108.03869836536745" cx="109.129998348856" cy="109.129998348856" fill="#1a6d77" stroke="transparent" stroke-width="0" fill-opacity="1" data-fill-palette-color="accent"></ellipse></g><g transform="matrix(1,0,0,1,45.976669165315194,70.57071645572978)"><svg viewBox="0 0 126.30665836708162 77.11856378625244" height="77.11856378625244" width="126.30665836708162"><g><svg xmlns="http://www.w3.org/2000/svg" xmlns:xlink="http://www.w3.org/1999/xlink" version="1.1" x="0" y="0" viewBox="0.0010000000474974513 15.218000411987305 99.9990005493164 61.055999755859375" enable-background="new 0 0 100 86.273" xml:space="preserve" height="77.11856378625244" width="126.30665836708162" class="icon-b-0" data-fill-palette-color="quaternary" id="b-0"><path d="M100 66.552C98.264 67.246 96.527 67.941 94.443 67.941 90.277 67.941 87.5 65.165 83.333 65.165S76.389 67.941 72.223 67.941 65.278 65.165 61.112 65.165 54.169 67.941 50.002 67.941 43.058 65.165 38.891 65.165 31.947 67.941 27.78 67.941 20.836 65.165 16.669 65.165 9.725 67.941 5.558 67.941C3.475 67.941 1.739 67.251 0.002 66.555V74.888C1.738 75.582 3.474 76.274 5.558 76.274 9.725 76.274 12.502 73.498 16.669 73.498S23.614 76.274 27.78 76.274 34.724 73.498 38.891 73.498 45.836 76.274 50.002 76.274 56.946 73.498 61.112 73.498 68.057 76.274 72.223 76.274 79.167 73.498 83.333 73.498C87.5 73.498 90.277 76.274 94.443 76.274 96.527 76.274 98.263 75.581 100 74.885z" fill="#ffffff" data-fill-palette-color="quaternary"></path><path d="M100 49.885C98.264 50.579 96.527 51.274 94.443 51.274 90.277 51.274 87.5 48.498 83.333 48.498S76.389 51.274 72.223 51.274 65.278 48.498 61.112 48.498 54.169 51.274 50.002 51.274 43.058 48.498 38.891 48.498 31.947 51.274 27.78 51.274 20.836 48.498 16.669 48.498 9.725 51.274 5.558 51.274C3.475 51.274 1.739 50.584 0.002 49.888V58.221C1.738 58.915 3.474 59.608 5.558 59.608 9.725 59.608 12.502 56.831 16.669 56.831S23.614 59.608 27.78 59.608 34.724 56.831 38.891 56.831 45.836 59.608 50.002 59.608 56.946 56.831 61.112 56.831 68.057 59.608 72.223 59.608 79.167 56.831 83.333 56.831C87.5 56.831 90.277 59.608 94.443 59.608 96.527 59.608 98.263 58.915 100 58.219z" fill="#ffffff" data-fill-palette-color="quaternary"></path><path d="M100 33.272C98.264 33.967 96.527 34.661 94.443 34.661 90.277 34.661 87.5 31.886 83.333 31.886S76.389 34.661 72.223 34.661 65.278 31.886 61.112 31.886 54.169 34.661 50.002 34.661 43.058 31.886 38.891 31.886 31.947 34.661 27.78 34.661 20.836 31.886 16.669 31.886 9.724 34.66 5.557 34.66C3.474 34.66 1.738 33.971 0.001 33.275V41.607C1.737 42.302 3.473 42.994 5.557 42.994 9.724 42.994 12.501 40.217 16.668 40.217S23.613 42.994 27.779 42.994 34.723 40.217 38.89 40.217 45.835 42.994 50.001 42.994 56.945 40.217 61.111 40.217 68.056 42.994 72.222 42.994 79.166 40.217 83.332 40.217C87.499 40.217 90.276 42.994 94.442 42.994 96.526 42.994 98.262 42.301 99.999 41.605z" fill="#ffffff" data-fill-palette-color="quaternary"></path><path d="M100 16.605C98.264 17.299 96.527 17.994 94.443 17.994 90.277 17.994 87.5 15.218 83.333 15.218S76.389 17.994 72.223 17.994 65.278 15.218 61.112 15.218 54.169 17.994 50.002 17.994 43.058 15.218 38.891 15.218 31.947 17.994 27.78 17.994 20.836 15.218 16.669 15.218 9.725 17.994 5.558 17.994C3.475 17.994 1.739 17.304 0.002 16.608V24.941C1.738 25.635 3.474 26.328 5.558 26.328 9.725 26.328 12.502 23.55 16.669 23.55S23.614 26.328 27.78 26.328 34.724 23.55 38.891 23.55 45.836 26.328 50.002 26.328 56.946 23.55 61.112 23.55 68.057 26.328 72.223 26.328 79.167 23.55 83.333 23.55C87.5 23.55 90.277 26.328 94.443 26.328 96.527 26.328 98.263 25.635 100 24.939z" fill="#ffffff" data-fill-palette-color="quaternary"></path></svg></g></svg></g></svg></g></svg></g></svg></g><defs></defs></svg>